:FULLY-SPECIFIED
:FORCE-ALL-JOINTS-BE-3DOF
:DEGREES
204
root -0.118256 15.8126 -35.7704 47.3157 55.7843 46.9498
lfemur -9.03317 0.891696 -15.3377
ltibia 46.354 0 0
lfoot -24.412 20.3509 0
ltoes -13.9318 0 0
rfemur -41.98 -3.76066 12.462
rtibia 52.1837 0 0
rfoot -7.7597 5.50623 0
rtoes -13.9806 0 0
lowerback 14.5014 0.661381 -7.71349
upperback -1.38144 -0.509885 1.68238
thorax -9.36676 0.251991 6.53652
lowerneck -4.76293 -2.7197 -4.5949
upperneck 5.46412 -3.49074 3.14483
head 2.77205 -1.7338 1.70177
lclavicle -3.226e-15 -3.08884e-15 0
lhumerus -3.54057 -33.9859 88.3388
lradius 43.377 0 0
lwrist -21.1212 0 0
lhand -26.6819 37.4956 0
lfingers 7.12502 0 0
lthumb -0.112853 67.4702 0
rclavicle -3.226e-15 -3.08884e-15 0
rhumerus -8.33667 20.0838 -71.5369
rradius 90.2538 0 0
rwrist -27.495 0 0
rhand 50.4145 -14.8375 0
rfingers 7.12502 0 0
rthumb 41.6182 -91.8545 0
205
root -0.102268 15.8069 -35.7676 47.5635 56.0997 47.2323
lfemur -8.98172 0.918202 -15.3821
ltibia 46.4027 0 0
lfoot -24.4491 20.427 0
ltoes -13.8633 0 0
rfemur -42.1077 -3.78218 12.4487
rtibia 52.2482 0 0
rfoot -7.67176 5.5533 0
rtoes -13.9403 0 0
lowerback 14.5429 0.650766 -7.74557
upperback -1.37166 -0.531257 1.68475
thorax -9.37751 0.243586 6.56196
lowerneck -4.76338 -2.71246 -4.58241
upperneck 5.46862 -3.48076 3.12606
head 2.77214 -1.72914 1.69364
lclavicle -3.25846e-15 -3.05202e-15 0
lhumerus -3.4108 -34.1466 88.3333
lradius 43.4776 0 0
lwrist -21.0674 0 0
lhand -26.6696 37.5381 0
lfingers 7.12502 0 0
lthumb -0.101013 67.5128 0
rclavicle -3.25846e-15 -3.05202e-15 0
rhumerus -8.19731 20.1691 -71.4794
rradius 90.5736 0 0
rwrist -27.6723 0 0
rhand 50.8359 -14.7855 0
rfingers 7.12502 0 0
rthumb 41.8359 -92.0053 0
206
root -0.0863122 15.8012 -35.7647 47.8109 56.4144 47.5142
lfemur -8.93037 0.944647 -15.4265
ltibia 46.4514 0 0
lfoot -24.4861 20.5029 0
ltoes -13.795 0 0
rfemur -42.2352 -3.80364 12.4354
rtibia 52.3125 0 0
rfoot -7.58396 5.60028 0
rtoes -13.9001 0 0
lowerback 14.5844 0.640174 -7.77758
upperback -1.3619 -0.55258 1.68711
thorax -9.38825 0.2352 6.58733
lowerneck -4.76383 -2.70523 -4.56994
upperneck 5.4731 -3.4708 3.10733
head 2.77222 -1.72449 1.68553
lclavicle -3.29095e-15 -3.01522e-15 0
lhumerus -3.28137 -34.307 88.3279
lradius 43.5781 0 0
lwrist -21.0136 0 0
lhand -26.6574 37.5806 0
lfingers 7.12502 0 0
lthumb -0.0891933 67.5553 0
rclavicle -3.29095e-15 -3.01522e-15 0
rhumerus -8.05821 20.2542 -71.422
rradius 90.8926 0 0
rwrist -27.8493 0 0
rhand 51.2566 -14.7338 0
rfingers 7.12502 0 0
rthumb 42.053 -92.1544 0
207
root -0.0703901 15.7955 -35.7619 48.0579 56.7284 47.7956
lfemur -8.87914 0.97103 -15.4707
ltibia 46.4999 0 0
lfoot -24.523 20.5786 0
ltoes -13.7269 0 0
rfemur -42.3623 -3.82505 12.4221
rtibia 52.3767 0 0
rfoot -7.49632 5.64716 0
rtoes -13.86 0 0
lowerback 14.6258 0.629606 -7.80951
upperback -1.35217 -0.573853 1.68947
thorax -9.39896 0.226833 6.61265
lowerneck -4.76427 -2.69803 -4.5575
upperneck 5.47759 -3.46087 3.08864
head 2.77232 -1.71985 1.67743
lclavicle -3.32347e-15 -2.97844e-15 0
lhumerus -3.15229 -34.467 88.3226
lradius 43.6784 0 0
lwrist -20.9599 0 0
lhand -26.6452 37.623 0
lfingers 7.12502 0 0
lthumb -0.0773962 67.5977 0
rclavicle -3.32347e-15 -2.97844e-15 0
rhumerus -7.91935 20.339 -71.3648
rradius 91.2108 0 0
rwrist -28.026 0 0
rhand 51.6764 -14.6823 0
rfingers 7.12502 0 0
rthumb 42.2696 -92.3015 0
208
root -0.0545023 15.7899 -35.759 48.3044 57.0417 48.0765
lfemur -8.82802 0.997351 -15.5148
ltibia 46.5483 0 0
lfoot -24.5599 20.6542 0
ltoes -13.6589 0 0
rfemur -42.4892 -3.8464 12.4089
rtibia 52.4406 0 0
rfoot -7.40883 5.69393 0
rtoes -13.8199 0 0
lowerback 14.6671 0.619063 -7.84137
upperback -1.34246 -0.595076 1.69183
thorax -9.40964 0.218487 6.63791
lowerneck -4.76472 -2.69084 -4.54509
upperneck 5.48206 -3.45097 3.06999
head 2.77241 -1.71523 1.66936
lclavicle -3.35601e-15 -2.94167e-15 0
lhumerus -3.02355 -34.6267 88.3173
lradius 43.7785 0 0
lwrist -20.9064 0 0
lhand -26.633 37.6653 0
lfingers 7.12502 0 0
lthumb -0.0656217 67.6401 0
rclavicle -3.35601e-15 -2.94167e-15 0
rhumerus -7.78076 20.4237 -71.3076
rradius 91.5283 0 0
rwrist -28.2022 0 0
rhand 52.0953 -14.6312 0
rfingers 7.12502 0 0
rthumb 42.4856 -92.4468 0
209
root -0.0386494 15.7842 -35.7562 48.5504 57.3542 48.3568
lfemur -8.77702 1.02361 -15.5589
ltibia 46.5966 0 0
lfoot -24.5966 20.7296 0
ltoes -13.591 0 0
rfemur -42.6158 -3.86768 12.3956
rtibia 52.5044 0 0
rfoot -7.32151 5.7406 0
rtoes -13.7799 0 0
lowerback 14.7083 0.608544 -7.87315
upperback -1.33277 -0.616247 1.69418
thorax -9.42029 0.21016 6.66312
lowerneck -4.76517 -2.68368 -4.53272
upperneck 5.48654 -3.4411 3.05138
head 2.7725 -1.71062 1.6613
lclavicle -3.38858e-15 -2.90493e-15 0
lhumerus -2.89518 -34.786 88.3121
lradius 43.8784 0 0
lwrist -20.8529 0 0
lhand -26.6208 37.7075 0
lfingers 7.12502 0 0
lthumb -0.0538704 67.6823 0
rclavicle -3.38858e-15 -2.90493e-15 0
rhumerus -7.64243 20.5081 -71.2506
rradius 91.845 0 0
rwrist -28.3782 0 0
rhand 52.5134 -14.5803 0
rfingers 7.12502 0 0
rthumb 42.701 -92.5902 0
210
root -0.0228322 15.7786 -35.7534 48.7959 57.6661 48.6366
lfemur -8.72613 1.0498 -15.6028
ltibia 46.6448 0 0
lfoot -24.6333 20.8048 0
ltoes -13.5234 0 0
rfemur -42.742 -3.8889 12.3824
rtibia 52.5679 0 0
rfoot -7.23434 5.78716 0
rtoes -13.74 0 0
lowerback 14.7493 0.598051 -7.90485
upperback -1.32311 -0.637366 1.69653
thorax -9.43092 0.201855 6.68826
lowerneck -4.76561 -2.67654 -4.52038
upperneck 5.49101 -3.43126 3.03282
head 2.7726 -1.70603 1.65326
lclavicle -3.42118e-15 -2.86821e-15 0
lhumerus -2.76718 -34.9449 88.307
lradius 43.9782 0 0
lwrist -20.7996 0 0
lhand -26.6087 37.7496 0
lfingers 7.12502 0 0
lthumb -0.0421428 67.7245 0
rclavicle -3.42118e-15 -2.86821e-15 0
rhumerus -7.50437 20.5923 -71.1937
rradius 92.1609 0 0
rwrist -28.5537 0 0
rhand 52.9306 -14.5296 0
rfingers 7.12502 0 0
rthumb 42.9159 -92.7316 0
211
root -0.00705146 15.7729 -35.7506 49.041 57.9771 48.9158
lfemur -8.67537 1.07592 -15.6466
ltibia 46.6929 0 0
lfoot -24.6698 20.8798 0
ltoes -13.4559 0 0
rfemur -42.868 -3.91006 12.3692
rtibia 52.6313 0 0
rfoot -7.14735 5.83361 0
rtoes -13.7002 0 0
lowerback 14.7903 0.587585 -7.93647
upperback -1.31348 -0.65843 1.69887
thorax -9.44152 0.19357 6.71334
lowerneck -4.76605 -2.66942 -4.50807
upperneck 5.49547 -3.42145 3.01429
head 2.7727 -1.70145 1.64524
lclavicle -3.4538e-15 -2.83151e-15 0
lhumerus -2.63955 -35.1035 88.3019
lradius 44.0777 0 0
lwrist -20.7464 0 0
lhand -26.5965 37.7917 0
lfingers 7.12502 0 0
lthumb -0.0304395 67.7666 0
rclavicle -3.4538e-15 -2.83151e-15 0
rhumerus -7.3666 20.6762 -71.137
rradius 92.476 0 0
rwrist -28.7289 0 0
rhand 53.3468 -14.4793 0
rfingers 7.12502 0 0
rthumb 43.1301 -92.8712 0
212
root 0.00869204 15.7673 -35.7477 49.2855 58.2874 49.1944
lfemur -8.62473 1.10198 -15.6903
ltibia 46.7408 0 0
lfoot -24.7063 20.9546 0
ltoes -13.3885 0 0
rfemur -42.9936 -3.93115 12.356
rtibia 52.6944 0 0
rfoot -7.06053 5.87996 0
rtoes -13.6604 0 0
lowerback 14.8311 0.577144 -7.96801
upperback -1.30387 -0.67944 1.70121
thorax -9.45209 0.185308 6.73835
lowerneck -4.76649 -2.66233 -4.49579
upperneck 5.49993 -3.41167 2.99581
head 2.7728 -1.69688 1.63724
lclavicle -3.48645e-15 -2.79483e-15 0
lhumerus -2.5123 -35.2616 88.2969
lradius 44.1771 0 0
lwrist -20.6933 0 0
lhand -26.5844 37.8336 0
lfingers 7.12502 0 0
lthumb -0.018761 67.8086 0
rclavicle -3.48645e-15 -2.79483e-15 0
rhumerus -7.22911 20.7599 -71.0804
rradius 92.7903 0 0
rwrist -28.9037 0 0
rhand 53.7621 -14.4292 0
rfingers 7.12502 0 0
rthumb 43.3438 -93.0087 0
213
root 0.0243975 15.7617 -35.7449 49.5296 58.597 49.4724
lfemur -8.57421 1.12796 -15.7338
ltibia 46.7886 0 0
lfoot -24.7427 21.0293 0
ltoes -13.3214 0 0
rfemur -43.1189 -3.95218 12.3429
rtibia 52.7573 0 0
rfoot -6.97388 5.92618 0
rtoes -13.6207 0 0
lowerback 14.8718 0.566731 -7.99946
upperback -1.29429 -0.700394 1.70355
thorax -9.46263 0.177067 6.7633
lowerneck -4.76693 -2.65526 -4.48355
upperneck 5.50438 -3.40192 2.97737
head 2.7729 -1.69233 1.62926
lclavicle -3.51912e-15 -2.75819e-15 0
lhumerus -2.38544 -35.4193 88.292
lradius 44.2762 0 0
lwrist -20.6403 0 0
lhand -26.5724 37.8755 0
lfingers 7.12502 0 0
lthumb -0.00710785 67.8505 0
rclavicle -3.51912e-15 -2.75819e-15 0
rhumerus -7.09192 20.8434 -71.0239
rradius 93.1037 0 0
rwrist -29.0781 0 0
rhand 54.1765 -14.3795 0
rfingers 7.12502 0 0
rthumb 43.5568 -93.1443 0
